<svg preserveAspectRatio="none" width="100%" height="100%" overflow="visible" style="display: block;" viewBox="0 0 80.5838 54" fill="none" xmlns="http://www.w3.org/2000/svg">
<g id="Group 427319979">
<g id="Subtract" filter="url(#filter0_n_0_4)">
<path d="M73.9287 2.22459e-07C76.2278 -0.000743233 78.0916 1.86208 78.0918 4.16113V14.1211H78.0908C74.4204 14.1212 71.4453 17.0971 71.4453 20.7676C71.4453 24.4381 74.4203 27.4139 78.0908 27.4141L78.0918 27.4131V36.5518C78.0917 38.8509 76.2279 40.7151 73.9287 40.7158L4.16309 40.7383C1.86396 40.739 0.000189953 38.8762 0 36.5771V27.4131C3.66998 27.4124 6.64453 24.4377 6.64453 20.7676C6.64452 17.0974 3.66997 14.1218 0 14.1211V4.18652C0.000141025 1.8874 1.86393 0.0232046 4.16309 0.0224612L73.9287 2.22459e-07Z" fill="var(--fill-0, #C2AAEE)"/>
<path d="M73.9287 2.22459e-07C76.2278 -0.000743233 78.0916 1.86208 78.0918 4.16113V14.1211H78.0908C74.4204 14.1212 71.4453 17.0971 71.4453 20.7676C71.4453 24.4381 74.4203 27.4139 78.0908 27.4141L78.0918 27.4131V36.5518C78.0917 38.8509 76.2279 40.7151 73.9287 40.7158L4.16309 40.7383C1.86396 40.739 0.000189953 38.8762 0 36.5771V27.4131C3.66998 27.4124 6.64453 24.4377 6.64453 20.7676C6.64452 17.0974 3.66997 14.1218 0 14.1211V4.18652C0.000141025 1.8874 1.86393 0.0232046 4.16309 0.0224612L73.9287 2.22459e-07Z" fill="url(#paint0_linear_0_4)" fill-opacity="0.66"/>
<path d="M73.9287 2.22459e-07C76.2278 -0.000743233 78.0916 1.86208 78.0918 4.16113V14.1211H78.0908C74.4204 14.1212 71.4453 17.0971 71.4453 20.7676C71.4453 24.4381 74.4203 27.4139 78.0908 27.4141L78.0918 27.4131V36.5518C78.0917 38.8509 76.2279 40.7151 73.9287 40.7158L4.16309 40.7383C1.86396 40.739 0.000189953 38.8762 0 36.5771V27.4131C3.66998 27.4124 6.64453 24.4377 6.64453 20.7676C6.64452 17.0974 3.66997 14.1218 0 14.1211V4.18652C0.000141025 1.8874 1.86393 0.0232046 4.16309 0.0224612L73.9287 2.22459e-07Z" fill="url(#paint1_linear_0_4)" fill-opacity="0.56"/>
</g>
<g id="Group 427319978">
<line id="Line 128" x1="8.30578" y1="16.6154" x2="14.1212" y2="16.6154" stroke="var(--stroke-0, #6E3EC1)" stroke-width="1.66154" stroke-linecap="round"/>
<line id="Line 129" x1="8.30578" y1="21.6" x2="11.6289" y2="21.6" stroke="var(--stroke-0, #6E3EC1)" stroke-width="1.66154" stroke-linecap="round"/>
<line id="Line 130" x1="8.30578" y1="26.5846" x2="13.2904" y2="26.5846" stroke="var(--stroke-0, #6E3EC1)" stroke-width="1.66154" stroke-linecap="round"/>
</g>
<line id="Line 128_2" x1="27.4144" y1="9.96923" x2="55.6606" y2="9.96923" stroke="var(--stroke-0, #6E3EC1)" stroke-width="1.66154" stroke-linecap="round"/>
<line id="Line 129_2" x1="27.4144" y1="16.6154" x2="63.1375" y2="16.6154" stroke="var(--stroke-0, #6E3EC1)" stroke-width="1.66154" stroke-linecap="round"/>
<line id="Line 130_2" x1="27.4144" y1="23.2615" x2="50.6759" y2="23.2615" stroke="var(--stroke-0, #6E3EC1)" stroke-width="1.66154" stroke-linecap="round"/>
<line id="Line 131" x1="27.4144" y1="29.9077" x2="71.4452" y2="29.9077" stroke="var(--stroke-0, #6E3EC1)" stroke-width="1.66154" stroke-linecap="round"/>
<g id="check-circle-fill">
<g id="Shape">
<path fill-rule="evenodd" clip-rule="evenodd" d="M65.6303 52.5046C73.0632 52.5046 79.0888 46.479 79.0888 39.0461C79.0888 31.6132 73.0632 25.5877 65.6303 25.5877C58.1974 25.5877 52.1718 31.6132 52.1718 39.0461C52.1718 46.479 58.1974 52.5046 65.6303 52.5046ZM71.6555 36.4762C72.0944 36.0392 72.0959 35.3291 71.6588 34.8902C71.2218 34.4512 70.5117 34.4497 70.0728 34.8868L63.9503 40.9834L61.562 38.6031C61.1233 38.1658 60.4132 38.167 59.9759 38.6057C59.5387 39.0444 59.5398 39.7546 59.9786 40.1918L62.8944 43.098C63.4778 43.6794 64.4215 43.6797 65.0052 43.0985L71.6555 36.4762Z" fill="var(--fill-0, #6E3EC1)"/>
<path d="M71.6588 34.8902C72.0959 35.3291 72.0944 36.0392 71.6555 36.4762L65.0052 43.0985C64.4215 43.6797 63.4778 43.6794 62.8944 43.098L59.9786 40.1918C59.5398 39.7546 59.5387 39.0444 59.9759 38.6057C60.4132 38.167 61.1233 38.1658 61.562 38.6031L63.9503 40.9834L70.0728 34.8868C70.5117 34.4497 71.2218 34.4512 71.6588 34.8902Z" fill="white"/>
</g>
</g>
<line id="Line 132" x1="20.3529" y1="4.63074e-07" x2="20.3529" y2="40.7077" stroke="var(--stroke-0, #DFD4F1)" stroke-width="0.830769" stroke-dasharray="3.32 3.32"/>
</g>
<defs>
<filter id="filter0_n_0_4" x="0" y="0" width="78.0918" height="40.7383" filterUnits="userSpaceOnUse" color-interpolation-filters="sRGB">
<feFlood flood-opacity="0" result="BackgroundImageFix"/>
<feBlend mode="normal" in="SourceGraphic" in2="BackgroundImageFix" result="shape"/>
<feTurbulence type="fractalNoise" baseFrequency="4.5757369995117188 4.5757369995117188" stitchTiles="stitch" numOctaves="3" result="noise" seed="3927" />
<feColorMatrix in="noise" type="luminanceToAlpha" result="alphaNoise" />
<feComponentTransfer in="alphaNoise" result="coloredNoise1">
<feFuncA type="discrete" tableValues="1 1 1 1 1 1 1 1 1 1 1 1 1 1 1 1 1 1 1 1 1 1 1 1 1 1 1 1 1 1 1 1 1 1 1 1 1 1 1 1 1 1 1 1 1 1 1 1 1 1 1 0 0 0 0 0 0 0 0 0 0 0 0 0 0 0 0 0 0 0 0 0 0 0 0 0 0 0 0 0 0 0 0 0 0 0 0 0 0 0 0 0 0 0 0 0 0 0 0 0 "/>
</feComponentTransfer>
<feComposite operator="in" in2="shape" in="coloredNoise1" result="noise1Clipped" />
<feFlood flood-color="rgba(94, 41, 186, 0.08)" result="color1Flood" />
<feComposite operator="in" in2="noise1Clipped" in="color1Flood" result="color1" />
<feMerge result="effect1_noise_0_4">
<feMergeNode in="shape" />
<feMergeNode in="color1" />
</feMerge>
</filter>
<linearGradient id="paint0_linear_0_4" x1="11.6525" y1="33.1045" x2="80.5731" y2="-1.21917" gradientUnits="userSpaceOnUse">
<stop stop-color="#FF6666" stop-opacity="0"/>
<stop offset="1" stop-color="#FF6666"/>
</linearGradient>
<linearGradient id="paint1_linear_0_4" x1="61.8048" y1="13.2177" x2="92.284" y2="-0.0840486" gradientUnits="userSpaceOnUse">
<stop stop-color="#FBC65C" stop-opacity="0"/>
<stop offset="1" stop-color="#FBC65C"/>
</linearGradient>
</defs>
</svg>
